<svg id="Layer_1" data-name="Layer 1" xmlns="http://www.w3.org/2000/svg" viewBox="0 0 1024 1024"><defs><style>.cls-1,.cls-2,.cls-3,.cls-4{fill:none;stroke-miterlimit:10;}.cls-1,.cls-3{stroke:#f0b13f;}.cls-1{stroke-width:50.43px;}.cls-2,.cls-4{stroke:#f95a22;}.cls-2{stroke-width:32.17px;}.cls-3{stroke-width:37.44px;}.cls-4{stroke-width:64.34px;}</style></defs><polygon class="cls-1" points="813.53 530.07 678.42 259.9 376.89 241.83 210.47 493.93 345.58 764.1 647.11 782.17 813.53 530.07"/><polygon class="cls-2" points="470.33 724.35 675.06 654.26 716.73 441.91 553.67 299.65 348.94 369.74 307.27 582.09 470.33 724.35"/><path class="cls-3" d="M415.46,582.18,512,637.92l109-63V449l-109-63L403,449V574.91c0,.77,10.76,7.24,12.18,8.86,7.41,8.39,11.89,24.73,16.92,34.9q19.09,38.61,38.2,77.21l74.47,150.57"/><polygon class="cls-4" points="612.42 139.91 239.97 238.98 139.54 611.08 411.57 884.09 784.03 785.02 884.46 412.92 612.42 139.91"/><path class="cls-2" d="M303,581.25l130.75,280"/></svg>